<svg xmlns="http://www.w3.org/2000/svg" width="130" height="23" viewBox="0 0 130 23">
  <g fill="none" fill-rule="evenodd" transform="translate(.5 .5)">
    <path fill="#FEFEFE" d="M120.759273,15.2227933 L128.807012,15.2227933 L128.807012,11.1992196 C128.807012,9.70164036 128.271613,8.44830236 127.200816,7.43979699 C126.129821,6.431883 124.741648,5.92703892 123.036099,5.92703892 C121.33055,5.92703892 119.931928,6.44154225 118.841024,7.47133742 C117.748936,8.50093546 117.20309,9.76393272 117.20309,11.2617091 L117.20309,16.8134168 C117.20309,18.3322859 117.743614,19.6004084 118.824859,20.6195587 C119.906499,21.638709 121.299995,22.148087 123.004755,22.148087 C124.543534,22.148087 125.864093,21.7010013 126.966628,20.8062386 C128.068178,19.9122645 128.702929,18.7265413 128.869305,17.2508432 L125.250828,17.2508432 L125.126244,17.6870869 C125.043253,17.9782445 124.814388,18.2690079 124.440239,18.560954 C124.065105,18.8519145 123.587465,18.9971976 123.004755,18.9971976 C122.360345,18.9971976 121.824946,18.7896222 121.398362,18.3732884 C120.972171,17.9581375 120.759273,17.417219 120.759273,16.7511245 L120.759273,15.2227933 Z M120.759273,12.2599638 L120.759273,11.2617091 C120.759273,10.6376027 120.988139,10.1232965 121.445278,9.71741058 C121.903008,9.31172174 122.433282,9.10907446 123.036099,9.10907446 C123.680903,9.10907446 124.216696,9.3063993 124.642689,9.70164036 C125.068485,10.0970786 125.282369,10.6165101 125.282369,11.2617091 L125.282369,12.2599638 L120.759273,12.2599638 Z M112.865689,20.2917353 C113.989514,19.2629258 114.550145,17.9581375 114.550145,16.376779 L114.550145,14.0378586 C114.550145,13.2887733 114.399342,12.5919269 114.098131,11.9477135 C113.796723,11.3029088 113.557213,10.892686 113.38098,10.7156653 C113.204157,10.5386446 113.053354,10.4089346 112.928178,10.3255496 L113.303115,9.91966361 C113.53198,9.67009993 113.765577,9.2651996 114.004101,8.70358275 C114.243611,8.14176877 114.363465,7.54920287 114.363465,6.92529366 L114.363465,5.11644977 C114.363465,3.68076864 113.847976,2.46981311 112.819363,1.48200614 C111.789371,0.494396302 110.505478,5.15143483e-14 108.966699,5.15143483e-14 L102.385197,5.15143483e-14 L102.385197,21.8358367 L108.873064,21.8358367 C110.41204,21.8358367 111.743046,21.3215305 112.865689,20.2917353 L112.865689,20.2917353 Z M110.651156,7.05046976 C110.651156,7.46581785 110.489905,7.82459028 110.167602,8.12678707 C109.845889,8.42839247 109.455773,8.57899804 108.99824,8.57899804 L106.159798,8.57899804 L106.159798,3.65021385 L108.99824,3.65021385 C109.455773,3.65021385 109.845889,3.80101655 110.167602,4.10262195 C110.489905,4.40383309 110.651156,4.7624084 110.651156,5.178545 L110.651156,7.05046976 Z M110.744989,16.376779 C110.744989,16.8764977 110.562645,17.3022936 110.199142,17.6557435 C109.835441,18.0095878 109.39289,18.1866085 108.873064,18.1866085 L106.159798,18.1866085 L106.159798,12.2284234 L108.873064,12.2284234 C109.455773,12.2284234 109.91311,12.4359989 110.24527,12.8523326 C110.578416,13.2684692 110.744989,13.6733695 110.744989,14.0686106 L110.744989,16.376779 Z"/>
    <path fill="#E63452" d="M96.4188109,19.2326273 L92.4255949,15.2415796 L96.4188109,11.2463923 C96.7040547,10.9611485 96.7040547,10.4937586 96.4188109,10.2085148 L95.103772,8.89249024 C94.9604601,8.74957265 94.7724003,8.67840954 94.5845376,8.67840954 C94.3966749,8.67840954 94.2088122,8.74957265 94.0655003,8.89189886 L89.6048944,13.3523076 C89.7389413,13.2442816 89.9027544,13.1898744 90.067356,13.1898744 C90.2554159,13.1898744 90.4434757,13.2610375 90.5865904,13.4033637 L92.4253977,15.2415796 L90.5859991,17.0819639 C90.4434757,17.2242901 90.2554159,17.2956504 90.067356,17.2956504 C89.9072883,17.2956504 89.7464321,17.2436086 89.6141594,17.1403137 L94.0655003,21.5920488 C94.2084179,21.7343751 94.3960835,21.8055382 94.5839462,21.8055382 C94.772006,21.8055382 94.9604601,21.7331923 95.1029835,21.5908661 L96.4194023,20.2705047 C96.7040547,19.9858522 96.7040547,19.5176739 96.4188109,19.2326273"/>
    <path fill="#FEFEFE" d="M90.0674152,13.1899138 C89.9026164,13.1899138 89.7388033,13.2441239 89.6045593,13.3525442 L88.2319591,14.7247502 C88.0923926,14.864908 88.0210324,15.0480396 88.0180755,15.2319598 C88.0164985,15.4223851 88.0878587,15.6130076 88.2319591,15.7578965 L89.6136272,17.1397618 C89.7458999,17.2434509 89.9071504,17.2956898 90.0674152,17.2956898 C90.255475,17.2956898 90.4435349,17.2243296 90.5860582,17.0820033 L92.4254569,15.241619 L90.5866496,13.4034031 C90.4435349,13.2610769 90.255475,13.1899138 90.0674152,13.1899138"/>
    <path fill="#E63452" d="M85.036026,17.2225554 C85.0113851,17.2343831 84.9869412,17.246605 84.9611175,17.2554757 C84.8836463,17.282088 84.8022326,17.2956898 84.7210159,17.2956898 C84.5331532,17.2956898 84.3448963,17.2243296 84.2023729,17.0820033 L82.3633685,15.241619 L84.2019787,13.4034031 C84.3448963,13.2610769 84.5331532,13.1899138 84.7210159,13.1899138 C84.8866032,13.1899138 85.052979,13.2455038 85.1878144,13.3560925 L80.7240544,8.89193828 C80.5809397,8.74961207 80.393077,8.67844897 80.2052143,8.67844897 C80.016366,8.67844897 79.8285032,8.74961207 79.6859799,8.89252966 L78.3709409,10.2085543 C78.0855,10.4937981 78.0855,10.9611879 78.3709409,11.2464317 L82.3633685,15.241619 L78.3709409,19.2326667 C78.0855,19.5177134 78.0855,19.9858917 78.3705467,20.2705441 L79.6867684,21.5909055 C79.8290946,21.7332317 80.017943,21.8055776 80.2058057,21.8055776 C80.3936684,21.8055776 80.5809397,21.7344145 80.7240544,21.5920883 L85.1767752,17.1379876 C85.1436578,17.1644027 85.108569,17.1870724 85.0722975,17.2067852 C85.0604699,17.2130933 85.0480508,17.2170358 85.036026,17.2225554"/>
    <path fill="#FEFEFE" d="M84.7210948 13.1899138C84.5332321 13.1899138 84.3449751 13.2610769 84.2018604 13.4034031L82.3634473 15.241619 84.2024518 17.0820033C84.3449751 17.2243296 84.5332321 17.2956898 84.7210948 17.2956898 84.8823453 17.2956898 85.0437929 17.2428596 85.1768541 17.1379876L86.5565509 15.7578965C86.6984829 15.6155703 86.7700402 15.4284961 86.7704345 15.2414219 86.7700402 15.0543477 86.6984829 14.8670764 86.5565509 14.7247502L85.1878932 13.3562896C85.053255 13.2455038 84.8868792 13.1899138 84.7210948 13.1899138M74.5251173 9.54555464L75.5854672 6.4886952 75.304166 6.36351911C75.1383816 6.28111972 74.8625999 6.1977347 74.4780037 6.11474393 74.0932104 6.03135891 73.6924498 5.98917358 73.2771017 5.98917358 72.9029533 5.98917358 72.5392527 6.06191371 72.1852113 6.2083796 71.8321556 6.35385985 71.5453348 6.51511032 71.3273115 6.69134249 71.108894 6.86816605 70.9068381 7.07081334 70.7189754 7.29967861 70.5322955 7.52814963 70.4069222 7.68427478 70.344827 7.76746267 70.2827318 7.85084769 70.2405464 7.92339069 70.2202423 7.98568305L70.1581471 6.23893439 66.7578911 6.23893439 66.7578911 21.8360732 70.3763674 21.8360732 70.3763674 12.8206344C70.3763674 11.6356998 70.6101609 10.7366003 71.0783392 10.123336 71.5453348 9.50967739 72.1440116 9.2031438 72.8712158 9.2031438 73.5578116 9.2031438 74.1089807 9.31708362 74.5251173 9.54555464L74.5251173 9.54555464zM55.215078 16.7511639L55.215078 15.2228328 63.2628168 15.2228328 63.2628168 11.199259C63.2628168 9.70167979 62.7274179 8.44834179 61.6564231 7.43983641 60.5856253 6.43192242 59.197452 5.92707835 57.491903 5.92707835 55.7875368 5.92707835 54.3887186 6.44158168 53.2966311 7.47137685 52.2047407 8.50117202 51.6586969 9.76377501 51.6586969 11.2617485L51.6586969 16.8136534C51.6586969 18.3321282 52.1994182 19.6000536 53.2808608 20.6195981 54.3623035 21.6387484 55.7556021 22.1479293 57.4611511 22.1479293 59.0001272 22.1479293 60.3208828 21.7008436 61.4224325 20.8062781 62.5249678 19.9123039 63.1595219 18.7267778 63.324912 17.2504884L59.7074214 17.2504884 59.5820482 17.6873234C59.4986631 17.9780868 59.2701921 18.2690473 58.8958466 18.5609934 58.5215011 18.8517568 58.0430721 18.9974342 57.4611511 18.9974342 56.8161492 18.9974342 56.2807504 18.7898587 55.8549545 18.3733278 55.4279759 17.9577826 55.215078 17.4172584 55.215078 16.7511639L55.215078 16.7511639zM55.215078 12.2600032L55.215078 11.2617485C55.215078 10.637445 55.4439432 10.123336 55.9010824 9.71725287 56.3588129 9.31176117 56.8890865 9.10911388 57.491903 9.10911388 58.1367078 9.10911388 58.6725009 9.30643872 59.0980996 9.70167979 59.5250783 10.0967237 59.7379762 10.6165495 59.7379762 11.2617485L59.7379762 12.2600032 55.215078 12.2600032zM45.5134376 17.4687088L45.5134376 9.5140142 48.8821531 9.5140142 48.8821531 6.23893439 45.5134376 6.23893439 45.5134376 2.18421448 41.8642094 2.18421448 41.8642094 6.23893439 34.7516444 6.23893439 34.7516444 2.18421448 31.1016277 2.18421448 31.1016277 6.23893439 29.0428258 6.23893439 29.0428258 9.5140142 31.1016277 9.5140142 31.1016277 17.4066135C31.1016277 20.5677535 32.5678636 22.1479293 35.5001383 22.1479293 36.9145297 22.1479293 38.0888194 21.7420433 39.0249789 20.9314542L37.4026179 18.3112326 37.1845946 18.4669635C37.0389172 18.5503485 36.8364671 18.639056 36.5760614 18.731706 36.3160499 18.8257359 36.0724001 18.8728495 35.8435348 18.8728495 35.115345 18.8728495 34.7516444 18.4048683 34.7516444 17.4687088L34.7516444 9.5140142 41.8642094 9.5140142 41.8642094 17.4066135C41.8642094 20.5677535 43.3306424 22.1479293 46.2619315 22.1479293 47.6763229 22.1479293 48.8515983 21.7420433 49.7877578 20.9314542L48.1655938 18.3112326 47.9473735 18.4669635C47.8009076 18.5503485 47.5986545 18.639056 47.3382488 18.731706 47.0790259 18.8257359 46.8341933 18.8728495 46.605328 18.8728495 45.8781239 18.8728495 45.5134376 18.4048683 45.5134376 17.4687088L45.5134376 17.4687088zM18.6896784 16.7511639L18.6896784 15.2228328 26.7376144 15.2228328 26.7376144 11.199259C26.7376144 9.70167979 26.2018213 8.44834179 25.1312207 7.43983641 24.0602258 6.43192242 22.6722496 5.92707835 20.9665035 5.92707835 19.2609545 5.92707835 17.8623334 6.44158168 16.7712315 7.47137685 15.6793411 8.50117202 15.1334945 9.76377501 15.1334945 11.2617485L15.1334945 16.8136534C15.1334945 18.3321282 15.6742158 19.6004479 16.7554613 20.6195981 17.837101 21.6387484 19.2303997 22.1479293 20.9351602 22.1479293 22.4739391 22.1479293 23.7946948 21.7008436 24.8972301 20.8062781 25.9987797 19.9123039 26.6333338 18.7267778 26.7997096 17.2508827L23.1812333 17.2508827 23.0566486 17.6873234C22.9732636 17.9780868 22.7449897 18.2690473 22.3706442 18.5609934 21.995313 18.8517568 21.5178697 18.9974342 20.9351602 18.9974342 20.2907497 18.9974342 19.7555479 18.7898587 19.3283722 18.3733278 18.9025763 17.9577826 18.6896784 17.4172584 18.6896784 16.7511639L18.6896784 16.7511639zM18.6896784 12.2600032L18.6896784 11.2617485C18.6896784 10.637445 18.9185437 10.123336 19.37588 9.71725287 19.8334134 9.31176117 20.3634898 9.10911388 20.9665035 9.10911388 21.6115054 9.10911388 22.1471013 9.30643872 22.5728972 9.70167979 22.9988902 10.0967237 23.2127738 10.6165495 23.2127738 11.2617485L23.2127738 12.2600032 18.6896784 12.2600032zM10.4806891 20.2917747C11.6041199 19.2629652 12.1649483 17.9577826 12.1649483 16.3768184L12.1649483 14.0378981C12.1649483 13.2884185 12.0141456 12.5921634 11.7127373 11.9479501 11.4111319 11.3025539 11.172016 10.8927254 10.9957838 10.7159019 10.8187631 10.5384869 10.6681575 10.408974 10.5427843 10.325589L10.9179183 9.91970303C11.1463894 9.67013935 11.3805771 9.26523903 11.6191016 8.70342505 11.8582175 8.1418082 11.9782683 7.54943942 11.9782683 6.92533309L11.9782683 5.1164892C11.9782683 3.6810052 11.4629765 2.4696554 10.4341669 1.48224269 9.40437177.494435728 8.12047898.0000394255425 6.58170006.0000394255425L4.97379915e-14.0000394255425 4.97379915e-14 21.8360732 6.48767014 21.8360732C8.02664619 21.8360732 9.35784963 21.3215699 10.4806891 20.2917747L10.4806891 20.2917747zM8.26595923 7.05050918C8.26595923 7.4660544 8.10451163 7.82443258 7.7820107 8.12682649 7.46069253 8.42843189 7.07037966 8.57923459 6.61304336 8.57923459L3.77440431 8.57923459 3.77440431 3.65025327 6.61304336 3.65025327C7.07037966 3.65025327 7.46069253 3.80105597 7.7820107 4.10266137 8.10451163 4.40387252 8.26595923 4.76244783 8.26595923 5.17858443L8.26595923 7.05050918zM8.35959489 16.3768184C8.35959489 16.8765371 8.17725176 17.302333 7.81374826 17.655783 7.45004763 18.0098243 7.00729879 18.1866479 6.48767014 18.1866479L3.77440431 18.1866479 3.77440431 12.2280685 6.48767014 12.2280685C7.07037966 12.2280685 7.5281102 12.4360383 7.86007327 12.8519778 8.19321911 13.2685086 8.35959489 13.6734089 8.35959489 14.0684529L8.35959489 16.3768184z"/>
  </g>
</svg>
