<svg xmlns="http://www.w3.org/2000/svg" viewBox="0 0 141.73 33.04"><defs><style>.cls-1{fill:#008eaf;}.cls-2{fill:#e65038;}.cls-3{fill:#c24530;}</style></defs><title>TOPdesk_RGB_Logo_Tagline</title><g id="Tagline"><path class="cls-1" d="M44.3,40.05l1.4-2.62h.36l-1.59,2.94v1.85h-.34V40.4l-1.61-3h.39Z" transform="translate(-11.03 -10.8)"/><path class="cls-1" d="M49.6,40.43a2,2,0,0,1-.42,1.37,1.48,1.48,0,0,1-1.17.49,1.51,1.51,0,0,1-.82-.23,1.47,1.47,0,0,1-.55-.65,2.48,2.48,0,0,1-.19-1,2,2,0,0,1,.42-1.35A1.45,1.45,0,0,1,48,38.59a1.41,1.41,0,0,1,1.15.49A2,2,0,0,1,49.6,40.43Zm-2.81,0a1.85,1.85,0,0,0,.32,1.15,1.23,1.23,0,0,0,1.83,0,1.85,1.85,0,0,0,.32-1.15,1.76,1.76,0,0,0-.33-1.14,1.21,1.21,0,0,0-1.82,0A1.82,1.82,0,0,0,46.79,40.43Z" transform="translate(-11.03 -10.8)"/><path class="cls-1" d="M50.87,38.66V41a1.15,1.15,0,0,0,.22.78.93.93,0,0,0,.7.24,1.24,1.24,0,0,0,.94-.32,1.5,1.5,0,0,0,.3-1.05v-2h.32v3.56h-.28L53,41.73h0a1.33,1.33,0,0,1-1.23.56c-.81,0-1.21-.44-1.21-1.31V38.66Z" transform="translate(-11.03 -10.8)"/><path class="cls-1" d="M55.94,38.59a2.8,2.8,0,0,1,.48,0l-.06.31a1.76,1.76,0,0,0-.46-.06.88.88,0,0,0-.74.39,1.54,1.54,0,0,0-.3,1v2h-.32V38.66h.27l0,.64h0a1.47,1.47,0,0,1,.47-.55A1,1,0,0,1,55.94,38.59Z" transform="translate(-11.03 -10.8)"/><path class="cls-1" d="M61.66,38.66v.22l-.73,0a1.3,1.3,0,0,1,.29.81,1.07,1.07,0,0,1-.34.83,1.3,1.3,0,0,1-.92.32l-.34,0a.89.89,0,0,0-.29.24.46.46,0,0,0-.1.29.27.27,0,0,0,.13.25.88.88,0,0,0,.43.08h.62a1.5,1.5,0,0,1,.89.23.85.85,0,0,1,.31.7,1,1,0,0,1-.46.87,2.36,2.36,0,0,1-1.3.3,1.72,1.72,0,0,1-1-.26.82.82,0,0,1-.37-.72.87.87,0,0,1,.23-.61,1.2,1.2,0,0,1,.62-.33.57.57,0,0,1-.26-.19.45.45,0,0,1-.1-.29.75.75,0,0,1,.46-.63,1.08,1.08,0,0,1-.49-.4,1.21,1.21,0,0,1-.17-.63,1.12,1.12,0,0,1,.34-.86,1.28,1.28,0,0,1,.91-.32,1.6,1.6,0,0,1,.55.07Zm-2.88,4.16c0,.49.37.74,1.09.74q1.41,0,1.41-.9a.52.52,0,0,0-.22-.46,1.32,1.32,0,0,0-.71-.15h-.59C59.11,42.05,58.78,42.31,58.78,42.82Zm.28-3a.81.81,0,0,0,.25.64,1.11,1.11,0,0,0,1.35,0,.85.85,0,0,0,.24-.65.92.92,0,0,0-.25-.69,1,1,0,0,0-.68-.22.83.83,0,0,0-.91.92Z" transform="translate(-11.03 -10.8)"/><path class="cls-1" d="M62.68,38.66V41a1.15,1.15,0,0,0,.22.78.93.93,0,0,0,.7.24,1.24,1.24,0,0,0,.94-.32,1.5,1.5,0,0,0,.3-1.05v-2h.32v3.56h-.28l-.06-.49h0a1.33,1.33,0,0,1-1.23.56c-.81,0-1.21-.44-1.21-1.31V38.66Z" transform="translate(-11.03 -10.8)"/><path class="cls-1" d="M66.3,37.67c0-.21.07-.32.21-.32a.18.18,0,0,1,.16.09.55.55,0,0,1,0,.46.18.18,0,0,1-.16.09C66.37,38,66.3,37.88,66.3,37.67Zm.37,4.55h-.32V38.66h.32Z" transform="translate(-11.03 -10.8)"/><path class="cls-1" d="M69.17,38.59a1.49,1.49,0,0,1,.66.14,1.36,1.36,0,0,1,.51.48h0c0-.27,0-.54,0-.81V37.12h.32v5.1h-.21l-.09-.54h0a1.33,1.33,0,0,1-1.17.61,1.4,1.4,0,0,1-1.12-.46,2,2,0,0,1-.39-1.34A2.26,2.26,0,0,1,68,39.08,1.35,1.35,0,0,1,69.17,38.59Zm0,.29a1,1,0,0,0-.88.41A2.09,2.09,0,0,0,68,40.48c0,1,.39,1.52,1.17,1.52a1.1,1.1,0,0,0,.89-.35,1.94,1.94,0,0,0,.28-1.16v-.06a1.91,1.91,0,0,0-.28-1.18A1,1,0,0,0,69.17,38.88Z" transform="translate(-11.03 -10.8)"/><path class="cls-1" d="M73.29,42.29a1.55,1.55,0,0,1-1.21-.48,1.93,1.93,0,0,1-.43-1.34,2.1,2.1,0,0,1,.42-1.37,1.38,1.38,0,0,1,1.13-.51,1.23,1.23,0,0,1,1,.44,1.82,1.82,0,0,1,.36,1.19v.26H72a1.66,1.66,0,0,0,.34,1.12,1.19,1.19,0,0,0,1,.39,3,3,0,0,0,.54,0,3.18,3.18,0,0,0,.58-.19v.3a2.41,2.41,0,0,1-.56.18A3.15,3.15,0,0,1,73.29,42.29Zm-.09-3.41a1.06,1.06,0,0,0-.83.34,1.54,1.54,0,0,0-.36,1h2.2a1.53,1.53,0,0,0-.27-1A.87.87,0,0,0,73.2,38.88Z" transform="translate(-11.03 -10.8)"/><path class="cls-1" d="M77.74,41.29a.85.85,0,0,1-.36.74,1.82,1.82,0,0,1-1,.26,2.55,2.55,0,0,1-1.13-.22v-.35a2.63,2.63,0,0,0,1.13.26,1.44,1.44,0,0,0,.8-.17.53.53,0,0,0,.28-.47.55.55,0,0,0-.22-.45,2.5,2.5,0,0,0-.72-.36,4.31,4.31,0,0,1-.74-.33,1,1,0,0,1-.33-.32.81.81,0,0,1-.11-.43.73.73,0,0,1,.34-.63,1.64,1.64,0,0,1,.93-.23,2.74,2.74,0,0,1,1.1.22l-.12.29a2.69,2.69,0,0,0-1-.22,1.36,1.36,0,0,0-.69.15.44.44,0,0,0-.25.4.53.53,0,0,0,.2.44,2.56,2.56,0,0,0,.77.38,3.78,3.78,0,0,1,.7.31.92.92,0,0,1,.33.32A.76.76,0,0,1,77.74,41.29Z" transform="translate(-11.03 -10.8)"/><path class="cls-1" d="M81.34,42a2.09,2.09,0,0,0,.53-.06v.27a1.75,1.75,0,0,1-.54.08.88.88,0,0,1-.7-.26,1.15,1.15,0,0,1-.22-.79v-2.3h-.53v-.19l.53-.15.16-.8h.17v.86h1v.28h-1v2.25a1.08,1.08,0,0,0,.14.61A.54.54,0,0,0,81.34,42Z" transform="translate(-11.03 -10.8)"/><path class="cls-1" d="M85.58,40.43a2,2,0,0,1-.42,1.37,1.47,1.47,0,0,1-1.16.49,1.52,1.52,0,0,1-.83-.23,1.47,1.47,0,0,1-.55-.65,2.48,2.48,0,0,1-.18-1,2,2,0,0,1,.42-1.35,1.61,1.61,0,0,1,2.31,0A2.07,2.07,0,0,1,85.58,40.43Zm-2.8,0a1.79,1.79,0,0,0,.32,1.15,1.21,1.21,0,0,0,1.82,0,1.79,1.79,0,0,0,.32-1.15,1.82,1.82,0,0,0-.32-1.14,1.23,1.23,0,0,0-1.83,0A1.82,1.82,0,0,0,82.78,40.43Z" transform="translate(-11.03 -10.8)"/><path class="cls-1" d="M90.52,41.29a.86.86,0,0,1-.37.74,1.76,1.76,0,0,1-1,.26A2.55,2.55,0,0,1,88,42.07v-.35a2.6,2.6,0,0,0,1.13.26,1.47,1.47,0,0,0,.8-.17.55.55,0,0,0,.28-.47.58.58,0,0,0-.22-.45,2.64,2.64,0,0,0-.72-.36,4.93,4.93,0,0,1-.75-.33,1.08,1.08,0,0,1-.32-.32.73.73,0,0,1-.11-.43.74.74,0,0,1,.33-.63,1.7,1.7,0,0,1,.94-.23,2.69,2.69,0,0,1,1.09.22l-.12.29a2.64,2.64,0,0,0-1-.22,1.36,1.36,0,0,0-.69.15.45.45,0,0,0-.26.4.56.56,0,0,0,.2.44,2.52,2.52,0,0,0,.78.38,3.78,3.78,0,0,1,.7.31,1.12,1.12,0,0,1,.33.32A.76.76,0,0,1,90.52,41.29Z" transform="translate(-11.03 -10.8)"/><path class="cls-1" d="M92.87,42.29a1.55,1.55,0,0,1-1.21-.48,1.93,1.93,0,0,1-.43-1.34,2.1,2.1,0,0,1,.42-1.37,1.36,1.36,0,0,1,1.12-.51,1.25,1.25,0,0,1,1,.44,1.82,1.82,0,0,1,.36,1.19v.26H91.57a1.61,1.61,0,0,0,.34,1.12,1.19,1.19,0,0,0,1,.39,2.79,2.79,0,0,0,.53,0,3,3,0,0,0,.59-.19v.3a2.41,2.41,0,0,1-.56.18A3.24,3.24,0,0,1,92.87,42.29Zm-.1-3.41a1.05,1.05,0,0,0-.82.34,1.54,1.54,0,0,0-.36,1h2.2a1.53,1.53,0,0,0-.27-1A.88.88,0,0,0,92.77,38.88Z" transform="translate(-11.03 -10.8)"/><path class="cls-1" d="M96.51,38.59a3,3,0,0,1,.49,0l-.07.31a1.7,1.7,0,0,0-.46-.06.88.88,0,0,0-.74.39,1.53,1.53,0,0,0-.29,1v2h-.33V38.66h.28l0,.64h0a1.47,1.47,0,0,1,.47-.55A1.08,1.08,0,0,1,96.51,38.59Z" transform="translate(-11.03 -10.8)"/><path class="cls-1" d="M98.5,42.22l-1.38-3.56h.34l.92,2.42a7.64,7.64,0,0,1,.27.81h0c.09-.29.18-.57.28-.82l.92-2.41h.33l-1.37,3.56Z" transform="translate(-11.03 -10.8)"/><path class="cls-1" d="M100.75,37.67c0-.21.07-.32.21-.32a.19.19,0,0,1,.16.09.55.55,0,0,1,0,.46A.19.19,0,0,1,101,38C100.82,38,100.75,37.88,100.75,37.67Zm.37,4.55h-.32V38.66h.32Z" transform="translate(-11.03 -10.8)"/><path class="cls-1" d="M103.73,42.29a1.49,1.49,0,0,1-1.19-.49,1.91,1.91,0,0,1-.43-1.34,2,2,0,0,1,.44-1.38,1.58,1.58,0,0,1,1.23-.49,2.37,2.37,0,0,1,.88.16l-.08.29a2.74,2.74,0,0,0-.81-.16,1.23,1.23,0,0,0-1,.41,1.8,1.8,0,0,0-.33,1.16,1.75,1.75,0,0,0,.33,1.13,1.18,1.18,0,0,0,1,.41,2.44,2.44,0,0,0,.9-.17v.3A2.09,2.09,0,0,1,103.73,42.29Z" transform="translate(-11.03 -10.8)"/><path class="cls-1" d="M106.93,42.29a1.56,1.56,0,0,1-1.21-.48,1.93,1.93,0,0,1-.43-1.34,2.1,2.1,0,0,1,.42-1.37,1.38,1.38,0,0,1,1.13-.51,1.22,1.22,0,0,1,1,.44,1.82,1.82,0,0,1,.36,1.19v.26h-2.56A1.66,1.66,0,0,0,106,41.6a1.21,1.21,0,0,0,1,.39,2.9,2.9,0,0,0,.54,0,3,3,0,0,0,.58-.19v.3a2.34,2.34,0,0,1-.55.18A3.27,3.27,0,0,1,106.93,42.29Zm-.09-3.41a1.07,1.07,0,0,0-.83.34,1.6,1.6,0,0,0-.36,1h2.2a1.53,1.53,0,0,0-.27-1A.87.87,0,0,0,106.84,38.88Z" transform="translate(-11.03 -10.8)"/><path class="cls-1" d="M112.35,42.29a1.56,1.56,0,0,1-1.21-.48,1.93,1.93,0,0,1-.43-1.34,2.1,2.1,0,0,1,.42-1.37,1.38,1.38,0,0,1,1.13-.51,1.22,1.22,0,0,1,1,.44,1.82,1.82,0,0,1,.36,1.19v.26h-2.56a1.66,1.66,0,0,0,.34,1.12,1.21,1.21,0,0,0,1,.39,2.9,2.9,0,0,0,.54,0,3,3,0,0,0,.58-.19v.3a2.34,2.34,0,0,1-.55.18A3.27,3.27,0,0,1,112.35,42.29Zm-.09-3.41a1.07,1.07,0,0,0-.83.34,1.6,1.6,0,0,0-.36,1h2.2a1.53,1.53,0,0,0-.27-1A.87.87,0,0,0,112.26,38.88Z" transform="translate(-11.03 -10.8)"/><path class="cls-1" d="M115.47,40.39l-1.24-1.73h.37l1.06,1.5,1-1.5h.36l-1.22,1.73,1.31,1.83h-.38l-1.12-1.59-1.12,1.59h-.36Z" transform="translate(-11.03 -10.8)"/><path class="cls-1" d="M119.35,42.29a1.5,1.5,0,0,1-1.19-.49,1.91,1.91,0,0,1-.43-1.34,2,2,0,0,1,.45-1.38,1.54,1.54,0,0,1,1.22-.49,2.42,2.42,0,0,1,.89.16l-.09.29a2.75,2.75,0,0,0-.8-.16,1.24,1.24,0,0,0-1,.41,1.8,1.8,0,0,0-.33,1.16,1.75,1.75,0,0,0,.33,1.13,1.18,1.18,0,0,0,.95.41,2.44,2.44,0,0,0,.9-.17v.3A2.09,2.09,0,0,1,119.35,42.29Z" transform="translate(-11.03 -10.8)"/><path class="cls-1" d="M122.55,42.29a1.52,1.52,0,0,1-1.2-.48,1.93,1.93,0,0,1-.44-1.34,2.1,2.1,0,0,1,.42-1.37,1.39,1.39,0,0,1,1.13-.51,1.22,1.22,0,0,1,1,.44,1.82,1.82,0,0,1,.37,1.19v.26h-2.57a1.72,1.72,0,0,0,.34,1.12,1.21,1.21,0,0,0,1,.39,2.83,2.83,0,0,0,.54,0,3,3,0,0,0,.58-.19v.3a2.34,2.34,0,0,1-.55.18A3.27,3.27,0,0,1,122.55,42.29Zm-.09-3.41a1,1,0,0,0-.82.34,1.6,1.6,0,0,0-.37,1h2.2a1.53,1.53,0,0,0-.27-1A.86.86,0,0,0,122.46,38.88Z" transform="translate(-11.03 -10.8)"/><path class="cls-1" d="M125.12,42.22h-.32v-5.1h.32Z" transform="translate(-11.03 -10.8)"/><path class="cls-1" d="M126.64,42.22h-.33v-5.1h.33Z" transform="translate(-11.03 -10.8)"/><path class="cls-1" d="M129.26,42.29a1.52,1.52,0,0,1-1.2-.48,1.93,1.93,0,0,1-.44-1.34A2.1,2.1,0,0,1,128,39.1a1.39,1.39,0,0,1,1.13-.51,1.22,1.22,0,0,1,1,.44,1.82,1.82,0,0,1,.36,1.19v.26H128a1.72,1.72,0,0,0,.34,1.12,1.21,1.21,0,0,0,1,.39,2.83,2.83,0,0,0,.54,0,3,3,0,0,0,.58-.19v.3a2.34,2.34,0,0,1-.55.18A3.27,3.27,0,0,1,129.26,42.29Zm-.09-3.41a1.07,1.07,0,0,0-.83.34,1.66,1.66,0,0,0-.36,1h2.2a1.53,1.53,0,0,0-.27-1A.86.86,0,0,0,129.17,38.88Z" transform="translate(-11.03 -10.8)"/><path class="cls-1" d="M134,42.22V39.91a1.12,1.12,0,0,0-.23-.78.92.92,0,0,0-.7-.25,1.18,1.18,0,0,0-.93.33,1.49,1.49,0,0,0-.3,1v2h-.32V38.66h.27l.06.49h0a1.35,1.35,0,0,1,1.24-.56c.8,0,1.21.43,1.21,1.3v2.33Z" transform="translate(-11.03 -10.8)"/><path class="cls-1" d="M136.88,42.29a1.48,1.48,0,0,1-1.19-.49,1.91,1.91,0,0,1-.44-1.34,2,2,0,0,1,.45-1.38,1.58,1.58,0,0,1,1.23-.49,2.37,2.37,0,0,1,.88.16l-.08.29a2.74,2.74,0,0,0-.81-.16,1.23,1.23,0,0,0-1,.41,1.8,1.8,0,0,0-.34,1.16,1.75,1.75,0,0,0,.34,1.13,1.17,1.17,0,0,0,.94.41,2.37,2.37,0,0,0,.9-.17v.3A2,2,0,0,1,136.88,42.29Z" transform="translate(-11.03 -10.8)"/><path class="cls-1" d="M140.08,42.29a1.55,1.55,0,0,1-1.21-.48,1.93,1.93,0,0,1-.43-1.34,2.1,2.1,0,0,1,.42-1.37,1.38,1.38,0,0,1,1.13-.51,1.22,1.22,0,0,1,1,.44,1.82,1.82,0,0,1,.36,1.19v.26h-2.56a1.66,1.66,0,0,0,.34,1.12,1.19,1.19,0,0,0,1,.39,2.38,2.38,0,0,0,1.12-.23v.3a2.41,2.41,0,0,1-.56.18A3.15,3.15,0,0,1,140.08,42.29ZM140,38.88a1.06,1.06,0,0,0-.83.34,1.54,1.54,0,0,0-.36,1H141a1.53,1.53,0,0,0-.27-1A.87.87,0,0,0,140,38.88Z" transform="translate(-11.03 -10.8)"/></g><g id="TOPdesk"><polygon class="cls-1" points="27.29 0.23 27.29 3.77 33.1 3.77 33.1 21.84 37.17 21.84 37.17 3.77 42.98 3.77 42.98 0.23 27.29 0.23"/><path class="cls-1" d="M75.28,32.64h4.07V25.36l3.36,0c4.12,0,6.82-3.78,6.82-8.06,0-4-2.8-6.25-6.73-6.25H75.28ZM82.06,22.1H79.35V14.57A15,15,0,0,1,83,14.46c1.61.21,2.33,1.16,2.33,3.17S85,22.1,82.06,22.1Z" transform="translate(-11.03 -10.8)"/><path class="cls-1" d="M101.46,11v6.15c-.32-.53-2.09-.86-3.67-.86-5,0-7.35,3.06-7.35,8.29,0,4.37,3.22,8,7.4,8h7.69V11Zm0,18.27H98.32c-2.27,0-4-2.15-4-5.46,0-2.57,1.32-4.37,3.84-4.37,2.21,0,3.28,1.21,3.28,2.84Z" transform="translate(-11.03 -10.8)"/><polygon class="cls-1" points="134.25 13.06 140.97 5.52 136.15 5.52 130.34 12.49 130.34 0.23 126.27 0.23 126.27 21.84 130.34 21.84 130.34 13.84 136.86 21.84 141.73 21.84 134.25 13.06"/><path class="cls-1" d="M63.89,10.8C57.59,10.8,54,16,54,22.24c0,6.54,4.43,10.63,9.43,10.63,6.26,0,9.88-4.84,9.88-11.26C73.32,15.42,69.1,10.8,63.89,10.8Zm-.06,18.42c-3.49,0-5.57-2.7-5.57-7.55,0-4.56,2.05-7.28,5.24-7.28,3.76,0,5.57,2.87,5.57,7.85C69.07,26.46,66.87,29.22,63.83,29.22Z" transform="translate(-11.03 -10.8)"/><path class="cls-1" d="M126.73,24" transform="translate(-11.03 -10.8)"/><path class="cls-1" d="M114.15,26.3h-2.58c.29,2,2.11,3.26,4.43,3.26A7.64,7.64,0,0,0,121,28v2.75c-.19.25-1.55,2.28-5.72,2.15a7.8,7.8,0,0,1-7.77-7.95c0-5.28,3.23-8.6,7.75-8.6a6.11,6.11,0,0,1,6.33,6.13C121.57,25.36,119.37,26.3,114.15,26.3Zm.73-6.7A3.39,3.39,0,0,0,111.57,23l0,.53h1.76c3.72,0,4.57-.41,4.57-1.53C117.87,20.4,116.7,19.6,114.88,19.6Z" transform="translate(-11.03 -10.8)"/><path class="cls-1" d="M128.74,32.87a6.44,6.44,0,0,1-5.08-2.15V28h0a8.41,8.41,0,0,0,4.9,1.5c1.94,0,2.88-.56,2.88-1.74,0-.91-.56-1.35-3.29-1.73-3.34-.47-5-1.79-5-4.19,0-3,2.67-5.49,6.71-5.49a5.5,5.5,0,0,1,4.33,1.56v2.86h0a7.72,7.72,0,0,0-3.94-1c-2.4,0-3.16.73-3.16,1.76,0,.8.47,1.12,3.16,1.56,3.29.53,5.05,2,5.05,4.49C135.34,30.88,133,32.87,128.74,32.87Z" transform="translate(-11.03 -10.8)"/></g><g id="Symbol"><path class="cls-1" d="M133.32,16.52" transform="translate(-11.03 -10.8)"/><path class="cls-2" d="M26.62,29.63h0l7.79-7.8L26.62,14l-7.8,7.8L11,29.63A11,11,0,0,0,26.62,29.63Z" transform="translate(-11.03 -10.8)"/><path class="cls-3" d="M26.62,14A11,11,0,0,0,11,14l7.79,7.8,7.8-7.8Z" transform="translate(-11.03 -10.8)"/></g></svg>